<svg xmlns="http://www.w3.org/2000/svg" viewBox="0 0 32 32"><path fill="#838383" d="M14 30H2V2h28v6h-2V6h-2V4H14v2h-2v2h-2v8h2v8h-2v2h2v2h2v2m16-12v12h-6v-2h2v-2h2v-2h-2v-4h2v-2m-14-8v2h4v-2m-4 10h8v2h-2v-2h-4v2h-2"/><path fill="#333334" d="M0 0h32v32H0V0h2v30h28V2H2m24 18v-2h-2v2M22 4h-8v2h6v2h-2V6h-2v4h-4V6h2v2h-4v8h2v-2h2v-2h2v2h2v-4h2v4h2v-2h2v4h2v-2h2V8h-2V6h-4m-6 18h6v4h-2v-2h-2v2h-2"/><path fill="#fff" d="M4 26v-4h6v-2H8v6m6-4h10v2H14"/><path fill="#050505" d="M22 4h4v4h4v10h-4v10H12v-8h2v4h-4v2h4v4h10v-4h4v-2h-4v-2h-2v-2h6V6h-6M12 16h10v2h-2v-2h-6v2h-2"/><path fill="#F0AB8D" d="M12 18h10v2h-2v-2h-6v2h-2"/><path fill="#261508" d="M14 24v4h10v-4h-2v4h-2v-2h-2v2h-2v-4h-2"/><path fill="#FCE7C4" d="M12 24h14v2h-2v-2H14v2h-2m2-12h4v-2h2v2h2v2h-2v2h-6"/><path fill="#FAD69E" d="M12 14v2h2v-4h2v2m2-4v2h2v-2m2 2h2v4h2v-2h2v4h-4v2H14v-2h6v2h2"/><path fill="#838383" d="M12 8h4v2h-4"/><path fill="#EAE9E7" d="M14 6v2h6V6h-2v2h-2V6m0 14h4v2h-4"/></svg>











































